<svg width="19" height="18" viewBox="0 0 19 18" fill="none" xmlns="http://www.w3.org/2000/svg">
<path d="M15.7755 2.63336C12.2639 -0.877544 6.55294 -0.877544 3.04129 2.63336C-0.468842 6.14427 -0.468842 11.8567 3.04129 15.3676C4.79711 17.1227 7.10293 17.9998 9.40879 17.9998C11.7146 17.9998 14.0197 17.1226 15.7755 15.3676C19.2864 11.8567 19.2864 6.14427 15.7755 2.63336ZM13.1223 11.6533C13.4156 11.9467 13.4156 12.4209 13.1223 12.7143C13.0527 12.7841 12.97 12.8394 12.8789 12.8772C12.7879 12.9149 12.6903 12.9343 12.5917 12.9342C12.4932 12.9343 12.3956 12.9149 12.3046 12.8772C12.2135 12.8394 12.1308 12.7841 12.0612 12.7143L9.40875 10.0611L6.75701 12.7136C6.61629 12.8542 6.42548 12.9333 6.2265 12.9334C6.12795 12.9335 6.03036 12.9141 5.93932 12.8764C5.84828 12.8387 5.76559 12.7833 5.69599 12.7136C5.40261 12.4202 5.40261 11.9452 5.69599 11.6526L8.34773 9.00009L5.69525 6.3476C5.40187 6.05423 5.40187 5.57926 5.69525 5.28662C5.98789 4.99324 6.46286 4.99324 6.75624 5.28662L9.40872 7.9391L12.0612 5.28662C12.3546 4.99324 12.8288 4.99324 13.1222 5.28662C13.4156 5.57926 13.4156 6.05423 13.1222 6.3476L10.4697 9.00009L13.1223 11.6533Z" fill="#DE5252"/>
</svg>
