<svg width="21" height="20" viewBox="0 0 21 20" fill="none" xmlns="http://www.w3.org/2000/svg">
<path fill-rule="evenodd" clip-rule="evenodd" d="M10.4086 0.833313C5.34611 0.833313 1.24194 4.93748 1.24194 9.99998C1.24194 15.0625 5.34611 19.1666 10.4086 19.1666C15.4711 19.1666 19.5753 15.0625 19.5753 9.99998C19.5753 4.93748 15.4711 0.833313 10.4086 0.833313ZM14.3819 8.44998C14.4551 8.36635 14.5108 8.26893 14.5458 8.16345C14.5807 8.05798 14.5942 7.94657 14.5855 7.8358C14.5768 7.72503 14.546 7.61712 14.4949 7.51842C14.4439 7.41972 14.3736 7.33223 14.2882 7.2611C14.2029 7.18996 14.1041 7.13661 13.9979 7.1042C13.8916 7.07178 13.7799 7.06095 13.6693 7.07234C13.5588 7.08372 13.4517 7.1171 13.3542 7.17051C13.2568 7.22391 13.171 7.29627 13.1019 7.38331L9.51861 11.6825L7.66444 9.82748C7.50727 9.67568 7.29677 9.59169 7.07828 9.59358C6.85978 9.59548 6.65077 9.68312 6.49626 9.83763C6.34175 9.99214 6.25411 10.2011 6.25221 10.4196C6.25032 10.6381 6.33431 10.8486 6.48611 11.0058L8.98611 13.5058C9.06799 13.5876 9.16602 13.6515 9.27396 13.6934C9.38189 13.7352 9.49736 13.7541 9.613 13.7489C9.72864 13.7436 9.84192 13.7143 9.94562 13.6629C10.0493 13.6114 10.1412 13.5389 10.2153 13.45L14.3819 8.44998Z" fill="#22C55E"/>
</svg>
