<svg width="46" height="46" viewBox="0 0 46 46" fill="none" xmlns="http://www.w3.org/2000/svg">
<circle cx="23.0401" cy="23.1314" r="22.6314" fill="white"/>
<g clip-path="url(#clip0_32_1618)">
<path fill-rule="evenodd" clip-rule="evenodd" d="M22.9999 13.9246C17.9374 13.9246 13.8333 18.0287 13.8333 23.0912C13.8333 28.1537 17.9374 32.2579 22.9999 32.2579C28.0624 32.2579 32.1666 28.1537 32.1666 23.0912C32.1666 18.0287 28.0624 13.9246 22.9999 13.9246ZM26.9733 21.5412C27.0464 21.4576 27.1021 21.3602 27.1371 21.2547C27.172 21.1492 27.1855 21.0378 27.1768 20.927C27.1681 20.8163 27.1373 20.7084 27.0862 20.6097C27.0352 20.511 26.9649 20.4235 26.8795 20.3523C26.7942 20.2812 26.6955 20.2279 26.5892 20.1954C26.4829 20.163 26.3712 20.1522 26.2607 20.1636C26.1501 20.175 26.043 20.2083 25.9455 20.2618C25.8481 20.3152 25.7623 20.3875 25.6933 20.4746L22.1099 24.7737L20.2558 22.9187C20.0986 22.7669 19.8881 22.6829 19.6696 22.6848C19.4511 22.6867 19.2421 22.7744 19.0876 22.9289C18.9331 23.0834 18.8454 23.2924 18.8435 23.5109C18.8416 23.7294 18.9256 23.9399 19.0774 24.0971L21.5774 26.5971C21.6593 26.6789 21.7573 26.7428 21.8653 26.7846C21.9732 26.8265 22.0887 26.8454 22.2043 26.8401C22.32 26.8348 22.4332 26.8056 22.5369 26.7541C22.6406 26.7026 22.7325 26.6301 22.8066 26.5412L26.9733 21.5412Z" fill="#22C55E"/>
</g>
<defs>
<clipPath id="clip0_32_1618">
<rect width="20" height="20" fill="white" transform="translate(13 13.0912)"/>
</clipPath>
</defs>
</svg>
