<svg width="20" height="18" viewBox="0 0 20 18" fill="none" xmlns="http://www.w3.org/2000/svg">
<g clip-path="url(#clip0_35_2036)">
<path d="M9.90869 18C15.1554 18 19.4087 13.9706 19.4087 9C19.4087 4.02944 15.1554 0 9.90869 0C4.66199 0 0.408691 4.02944 0.408691 9C0.408691 13.9706 4.66199 18 9.90869 18Z" fill="#FFE177"/>
<path d="M9.90892 0C9.62551 0 9.34497 0.0117773 9.06787 0.0348047C13.9206 0.438082 17.7268 4.29796 17.7268 9C17.7268 13.702 13.9206 17.5619 9.06787 17.9652C9.34497 17.9882 9.62551 18 9.90892 18C15.1556 18 19.4089 13.9706 19.4089 9C19.4089 4.02943 15.1556 0 9.90892 0Z" fill="#FFD15B"/>
<path d="M9.9087 16.4608C8.31993 16.4608 6.70597 15.9575 5.93283 15.4603C5.86991 15.4199 5.82654 15.3574 5.81224 15.2867C5.79795 15.2159 5.81391 15.1427 5.85661 15.0831C5.89932 15.0234 5.96527 14.9823 6.03995 14.9688C6.11464 14.9553 6.19195 14.9704 6.25487 15.0108C6.80001 15.3614 8.27403 15.9175 9.9087 15.9175C13.9349 15.9175 17.2105 12.8143 17.2105 8.99996C17.2105 5.18562 13.9349 2.08248 9.9087 2.08248C9.83266 2.08248 9.75973 2.05386 9.70596 2.00293C9.6522 1.95199 9.62199 1.8829 9.62199 1.81086C9.62199 1.73883 9.6522 1.66974 9.70596 1.6188C9.75973 1.56786 9.83266 1.53925 9.9087 1.53925C14.2511 1.53925 17.7839 4.88612 17.7839 9C17.7839 13.1139 14.2511 16.4608 9.9087 16.4608Z" fill="#384860"/>
<path d="M8.58836 11.9436C8.49965 11.9437 8.41179 11.9272 8.32984 11.895C8.24788 11.8628 8.17344 11.8156 8.1108 11.7561L5.88843 9.65073C5.27479 9.06939 6.22757 8.16229 6.84355 8.74588L8.58832 10.3988L12.9741 6.24384C13.5825 5.66746 14.5517 6.55909 13.9293 7.1487L9.06592 11.7561C9.00328 11.8156 8.92884 11.8628 8.84689 11.895C8.76493 11.9272 8.67707 11.9437 8.58836 11.9436Z" fill="#384860"/>
<path d="M7.95184 2.30682C8.32082 2.30682 8.32145 1.76355 7.95184 1.76355C7.58286 1.76355 7.58227 2.30682 7.95184 2.30682ZM6.11574 3.0239C6.48472 3.0239 6.48535 2.48063 6.11574 2.48063C5.74676 2.48067 5.74617 3.0239 6.11574 3.0239ZM4.53815 4.16676C4.90712 4.16676 4.90776 3.62349 4.53815 3.62349C4.16917 3.62353 4.16854 4.16676 4.53815 4.16676ZM3.32649 5.65753C3.69547 5.65753 3.6961 5.11426 3.32649 5.11426C2.95751 5.11426 2.95692 5.65753 3.32649 5.65753ZM2.56341 7.39456C2.93239 7.39456 2.93302 6.85129 2.56341 6.85129C2.19443 6.85129 2.19384 7.39456 2.56341 7.39456ZM2.3009 9.25953C2.66987 9.25953 2.67051 8.71626 2.3009 8.71626C1.93192 8.71626 1.93129 9.25953 2.3009 9.25953ZM2.5568 11.1253C2.92578 11.1253 2.92641 10.582 2.5568 10.582C2.18782 10.582 2.18723 11.1253 2.5568 11.1253ZM3.31376 12.8648C3.68274 12.8648 3.68337 12.3215 3.31376 12.3215C2.94478 12.3215 2.94415 12.8648 3.31376 12.8648ZM4.52011 14.3594C4.88909 14.3594 4.88972 13.8161 4.52011 13.8161C4.15113 13.8161 4.1505 14.3594 4.52011 14.3594Z" fill="#384860"/>
</g>
<defs>
<clipPath id="clip0_35_2036">
<rect width="19" height="18" fill="white" transform="translate(0.408691)"/>
</clipPath>
</defs>
</svg>
