<svg width="355" height="236" viewBox="0 0 355 236" fill="none" xmlns="http://www.w3.org/2000/svg">
<path d="M127.339 135.82C139.505 114.412 162.711 97.9739 187.278 99.5574C169.157 119.269 158.59 144.758 157.447 171.513C157.044 181.833 157.669 193.353 150.82 201.081C146.557 205.889 140.043 208.218 133.637 208.706C127.232 209.195 120.828 208.037 114.508 206.884L112.974 207.355C112.391 182.736 115.173 157.228 127.339 135.82Z" fill="#F0F0F0"/>
<path d="M187.314 100.073C169.148 108.821 153.657 123.432 144.148 141.25C142.093 145.102 140.342 149.189 139.579 153.51C138.815 157.834 139.349 161.949 140.825 166.055C142.174 169.808 143.989 173.492 144.403 177.508C144.839 181.742 143.282 185.7 140.479 188.842C137.049 192.686 132.443 195.068 127.858 197.24C122.768 199.653 117.442 202.078 113.836 206.58C113.399 207.126 112.578 206.416 113.015 205.871C119.288 198.038 130.026 196.565 137.473 190.255C140.947 187.31 143.556 183.301 143.391 178.602C143.247 174.494 141.379 170.694 139.98 166.905C138.511 162.926 137.778 158.926 138.305 154.685C138.844 150.346 140.438 146.182 142.387 142.294C146.781 133.525 152.794 125.475 159.682 118.517C167.599 110.518 176.826 103.932 186.963 99.0458C187.59 98.7436 187.938 99.7726 187.314 100.073Z" fill="white"/>
<path d="M146.934 135.295C144.149 133.258 142.178 130.297 141.374 126.941C140.57 123.585 140.985 120.052 142.545 116.974C142.862 116.352 143.843 116.816 143.525 117.439C142.068 120.303 141.682 123.594 142.437 126.718C143.192 129.841 145.038 132.592 147.643 134.474C148.208 134.883 147.496 135.702 146.934 135.295Z" fill="white"/>
<path d="M139.89 164.242C146.868 163.222 153.206 159.608 157.639 154.121C158.078 153.577 158.899 154.287 158.461 154.83C153.837 160.531 147.234 164.279 139.969 165.324C139.277 165.423 139.201 164.34 139.89 164.242Z" fill="white"/>
<path d="M168.135 111.853C169.049 112.866 170.199 113.636 171.484 114.094C172.768 114.552 174.146 114.684 175.494 114.477C176.185 114.37 176.26 115.453 175.573 115.56C174.083 115.781 172.561 115.634 171.141 115.131C169.721 114.628 168.446 113.785 167.426 112.675C167.321 112.578 167.257 112.445 167.247 112.303C167.236 112.161 167.28 112.02 167.37 111.909C167.465 111.801 167.598 111.734 167.741 111.724C167.884 111.713 168.026 111.76 168.135 111.853Z" fill="white"/>
<path d="M236.157 167.093C235.727 167.172 235.298 167.252 234.865 167.34C229.096 168.441 223.427 170.008 217.912 172.027C217.483 172.177 217.051 172.335 216.627 172.496C203.393 177.502 191.203 184.923 180.677 194.381C176.492 198.148 172.6 202.228 169.034 206.586C164.109 212.605 159.248 219.523 152.812 223.448C152.146 223.865 151.454 224.24 150.74 224.572L113.668 209.189C113.601 209.112 113.53 209.043 113.463 208.966L111.955 208.419C112.123 208.181 112.303 207.939 112.471 207.701C112.568 207.563 112.673 207.428 112.77 207.29C112.837 207.199 112.905 207.108 112.961 207.022C112.983 206.991 113.006 206.961 113.025 206.939C113.08 206.853 113.141 206.779 113.193 206.701C114.193 205.341 115.204 203.986 116.227 202.635C116.23 202.627 116.23 202.627 116.242 202.622C124.061 192.349 132.806 182.639 142.746 174.566C143.045 174.323 143.347 174.072 143.663 173.836C148.164 170.222 152.952 166.982 157.981 164.148C160.739 162.605 163.574 161.203 166.474 159.947C173.974 156.716 181.935 154.685 190.065 153.928C206.274 152.422 222.783 156.119 235.215 166.305C235.533 166.566 235.843 166.823 236.157 167.093Z" fill="#F0F0F0"/>
<path d="M235.878 167.529C216.108 163.573 194.946 165.909 176.63 174.409C172.67 176.247 168.812 178.456 165.602 181.446C162.39 184.438 160.339 188.045 159.047 192.212C157.865 196.022 157.097 200.056 155.01 203.512C152.81 207.155 149.184 209.378 145.055 210.198C140.004 211.202 134.892 210.33 129.924 209.303C124.407 208.163 118.695 206.892 113.106 208.315C112.429 208.488 112.201 207.427 112.877 207.255C122.601 204.778 132.061 210.07 141.805 209.516C146.351 209.258 150.848 207.627 153.544 203.777C155.902 200.41 156.697 196.25 157.86 192.382C159.082 188.321 160.904 184.686 163.878 181.617C166.92 178.477 170.699 176.112 174.595 174.181C183.38 169.827 193.027 167.021 202.715 165.613C213.851 163.995 225.181 164.294 236.216 166.497C236.899 166.634 236.557 167.664 235.878 167.529Z" fill="white"/>
<path d="M182.438 171.332C181.44 168.028 181.649 164.477 183.027 161.313C184.405 158.149 186.863 155.579 189.961 154.06C190.588 153.755 191.092 154.716 190.463 155.022C187.576 156.431 185.287 158.826 184.01 161.775C182.732 164.724 182.551 168.032 183.498 171.103C183.703 171.771 182.642 171.996 182.438 171.332Z" fill="white"/>
<path d="M159.391 190.202C165.577 193.59 172.813 194.522 179.655 192.811C180.332 192.641 180.561 193.702 179.884 193.872C172.76 195.639 165.233 194.654 158.803 191.114C158.191 190.776 158.782 189.866 159.391 190.202Z" fill="white"/>
<path d="M213.475 165.384C213.595 166.743 214.05 168.05 214.8 169.19C215.55 170.329 216.57 171.264 217.771 171.911C218.387 172.241 217.795 173.151 217.183 172.823C215.86 172.102 214.734 171.068 213.902 169.811C213.071 168.554 212.56 167.113 212.414 165.613C212.389 165.473 212.418 165.328 212.495 165.208C212.572 165.088 212.692 165.002 212.83 164.968C212.971 164.938 213.117 164.965 213.238 165.043C213.359 165.121 213.444 165.244 213.475 165.384Z" fill="white"/>
<path d="M165.536 192.47C160.344 167.358 153.854 158.986 153.854 158.986L151.375 157.062L148.393 154.746L148.407 154.448L147.7 154.207L147.534 154.078L147.262 153.869L147.218 153.916L147.126 154.012L133.634 149.424L116.517 143.608L108.591 133.302C107.3 131.624 105.638 130.267 103.735 129.339C101.832 128.41 99.7404 127.936 97.6234 127.951L72.3096 128.139C68.8869 128.164 65.5975 129.469 63.088 131.798L46.4497 147.236L20.5239 159.622L20.4802 159.578L20.2079 159.773L16.2021 161.689L16.3675 162.549L13.8881 164.339C13.8881 164.339 7.3982 172.13 2.20623 195.496C0.885458 201.442 0.235323 214.196 0.000659454 229.912C-0.0111277 230.707 0.135204 231.497 0.431143 232.235C0.727081 232.973 1.16672 233.644 1.72451 234.211C2.28229 234.777 2.94709 235.227 3.68024 235.534C4.4134 235.841 5.20028 236 5.99515 236H144.47L161.753 236C162.547 236 163.334 235.841 164.066 235.535C164.799 235.228 165.464 234.778 166.021 234.213C166.579 233.647 167.019 232.976 167.315 232.239C167.611 231.502 167.758 230.713 167.748 229.918C167.518 212.817 166.869 198.918 165.536 192.47Z" fill="#3F3D56"/>
<path d="M183.303 21.8999C177.915 21.8999 172.748 24.0408 168.939 27.8515C165.129 31.6623 162.989 36.8308 162.989 42.2201C162.989 47.6093 165.129 52.7779 168.939 56.5886C172.748 60.3994 177.915 62.5403 183.303 62.5403H334.687C340.074 62.5403 345.241 60.3994 349.05 56.5886C352.86 52.7779 355 47.6093 355 42.2201C355 36.8308 352.86 31.6623 349.05 27.8515C345.241 24.0408 340.074 21.8999 334.687 21.8999H183.303Z" fill="#E5E5E5"/>
<path d="M183.303 26.0123C179.006 26.0123 174.884 27.7199 171.846 30.7595C168.807 33.799 167.1 37.9215 167.1 42.2201C167.1 46.5187 168.807 50.6412 171.846 53.6807C174.884 56.7203 179.006 58.4279 183.303 58.4279H334.687C338.984 58.4279 343.105 56.7203 346.143 53.6807C349.182 50.6412 350.889 46.5187 350.889 42.2201C350.889 37.9215 349.182 33.799 346.143 30.7595C343.105 27.7199 338.984 26.0123 334.687 26.0123H183.303Z" fill="white"/>
<path d="M88.9418 118.438C107.258 118.438 122.105 103.585 122.105 85.2638C122.105 66.942 107.258 52.0893 88.9418 52.0893C70.6261 52.0893 55.7783 66.942 55.7783 85.2638C55.7783 103.585 70.6261 118.438 88.9418 118.438Z" fill="#9E616A"/>
<path d="M80.458 116.814C80.3164 116.502 80.1751 116.189 80.0342 115.874C80.0885 115.876 80.1422 115.884 80.1965 115.885L80.458 116.814Z" fill="#2F2E41"/>
<path d="M54.8561 53.5979C56.5334 52.2595 58.4938 51.0279 60.6383 51.0971C62.7828 51.1663 64.9575 53.1038 64.5132 55.2036C68.4522 48.2269 74.7219 42.8611 82.2218 40.0479C89.7217 37.2347 97.9725 37.154 105.526 39.8198C110.856 41.7009 116.083 45.4641 117.307 50.9837C117.621 52.4006 117.689 53.9542 118.573 55.1047C119.688 56.5554 121.822 56.8835 123.579 56.3732C123.596 56.3681 123.614 56.3629 123.631 56.3577C123.928 56.2563 124.248 56.2464 124.551 56.3291C124.853 56.4118 125.124 56.5834 125.328 56.8218C125.532 57.0601 125.66 57.3541 125.695 57.6659C125.73 57.9776 125.67 58.2927 125.525 58.5704L124.016 61.3839C125.917 61.8078 127.893 61.7658 129.774 61.2614C130.087 61.1794 130.417 61.1962 130.72 61.3093C131.022 61.4225 131.282 61.6266 131.464 61.8935C131.647 62.1605 131.742 62.4773 131.737 62.8004C131.732 63.1236 131.627 63.4373 131.437 63.6985C126.464 70.5281 118.156 74.9383 109.678 74.8865C103.652 74.8497 97.5646 72.7724 91.7002 74.1585C89.4316 74.6947 87.3117 75.7322 85.4961 77.1949C83.6806 78.6576 82.2154 80.5083 81.2082 82.6113C80.2009 84.7143 79.6771 87.0162 79.6751 89.3481C79.6732 91.6801 80.1932 93.9828 81.197 96.0875C79.3954 94.1163 75.9129 94.583 74.07 96.5157C72.2272 98.4484 71.7502 101.333 71.9359 103.997C72.2198 108.072 73.8159 111.912 75.4985 115.65C61.3912 115.205 48.0479 105.306 43.5565 91.9168C39.0463 78.4716 43.7732 62.442 54.8561 53.5979Z" fill="#2F2E41"/>
<path opacity="0.2" d="M32.6414 184.889L41.943 235.514L47.5242 236L32.6414 184.889Z" fill="black"/>
<path opacity="0.2" d="M135.101 181.071L125.799 235.477L120.218 236L135.101 181.071Z" fill="black"/>
<path d="M216.741 51.9114H186.622C186.526 51.9121 186.431 51.8938 186.342 51.8576C186.254 51.8214 186.173 51.7681 186.105 51.7006C186.037 51.6332 185.984 51.5529 185.947 51.4646C185.91 51.3762 185.891 51.2814 185.891 51.1857C185.891 51.09 185.91 50.9952 185.947 50.9068C185.984 50.8185 186.037 50.7382 186.105 50.6708C186.173 50.6033 186.254 50.55 186.342 50.5138C186.431 50.4776 186.526 50.4593 186.622 50.46H216.741C216.933 50.4613 217.116 50.5383 217.251 50.6743C217.386 50.8102 217.462 50.9941 217.462 51.1857C217.462 51.3773 217.386 51.5612 217.251 51.6971C217.116 51.8331 216.933 51.9101 216.741 51.9114Z" fill="#0E93EA"/>
<path d="M254.95 52.1533H224.83C224.735 52.154 224.64 52.1357 224.551 52.0995C224.463 52.0633 224.382 52.01 224.314 51.9425C224.246 51.875 224.192 51.7948 224.156 51.7065C224.119 51.6181 224.1 51.5233 224.1 51.4276C224.1 51.3319 224.119 51.2371 224.156 51.1487C224.192 51.0603 224.246 50.9801 224.314 50.9127C224.382 50.8452 224.463 50.7919 224.551 50.7557C224.64 50.7195 224.735 50.7012 224.83 50.7019H254.95C255.046 50.7012 255.141 50.7195 255.229 50.7557C255.318 50.7919 255.398 50.8452 255.466 50.9127C255.534 50.9801 255.588 51.0603 255.625 51.1487C255.662 51.2371 255.68 51.3319 255.68 51.4276C255.68 51.5233 255.662 51.6181 255.625 51.7065C255.588 51.7948 255.534 51.875 255.466 51.9425C255.398 52.01 255.318 52.0633 255.229 52.0995C255.141 52.1357 255.046 52.154 254.95 52.1533Z" fill="#0E93EA"/>
<path d="M293.159 52.3952H263.039C262.847 52.3939 262.664 52.3169 262.529 52.1809C262.394 52.045 262.318 51.8611 262.318 51.6695C262.318 51.4779 262.394 51.294 262.529 51.1581C262.664 51.0221 262.847 50.9451 263.039 50.9438H293.159C293.254 50.9432 293.349 50.9614 293.438 50.9976C293.526 51.0338 293.607 51.0872 293.675 51.1546C293.743 51.2221 293.797 51.3023 293.833 51.3907C293.87 51.479 293.889 51.5738 293.889 51.6695C293.889 51.7652 293.87 51.86 293.833 51.9484C293.797 52.0368 293.743 52.117 293.675 52.1844C293.607 52.2519 293.526 52.3052 293.438 52.3414C293.349 52.3776 293.254 52.3959 293.159 52.3952Z" fill="#0E93EA"/>
<path d="M331.368 52.6371H301.248C301.056 52.6358 300.873 52.5588 300.738 52.4228C300.603 52.2869 300.527 52.103 300.527 51.9114C300.527 51.7198 300.603 51.5359 300.738 51.4C300.873 51.264 301.056 51.187 301.248 51.1857H331.368C331.559 51.187 331.742 51.264 331.877 51.4C332.012 51.5359 332.088 51.7198 332.088 51.9114C332.088 52.103 332.012 52.2869 331.877 52.4228C331.742 52.5588 331.559 52.6358 331.368 52.6371Z" fill="#0E93EA"/>
<path d="M201.615 45.2325C204.707 45.2325 207.213 42.7254 207.213 39.6327C207.213 36.54 204.707 34.0329 201.615 34.0329C198.524 34.0329 196.017 36.54 196.017 39.6327C196.017 42.7254 198.524 45.2325 201.615 45.2325Z" fill="#0E93EA"/>
<path d="M240.055 45.2325C243.146 45.2325 245.653 42.7254 245.653 39.6327C245.653 36.54 243.146 34.0329 240.055 34.0329C236.963 34.0329 234.457 36.54 234.457 39.6327C234.457 42.7254 236.963 45.2325 240.055 45.2325Z" fill="#0E93EA"/>
<path d="M278.494 45.2325C281.586 45.2325 284.092 42.7254 284.092 39.6327C284.092 36.54 281.586 34.0329 278.494 34.0329C275.403 34.0329 272.896 36.54 272.896 39.6327C272.896 42.7254 275.403 45.2325 278.494 45.2325Z" fill="#0E93EA"/>
<path d="M316.934 45.2325C320.025 45.2325 322.532 42.7254 322.532 39.6327C322.532 36.54 320.025 34.0329 316.934 34.0329C313.842 34.0329 311.336 36.54 311.336 39.6327C311.336 42.7254 313.842 45.2325 316.934 45.2325Z" fill="#0E93EA"/>
</svg>
